<svg width="314" height="236" viewBox="0 0 314 236" fill="none" xmlns="http://www.w3.org/2000/svg">
<rect x="0.575562" y="47.8772" width="15.6604" height="313.208" rx="7.83019" transform="rotate(-90 0.575562 47.8772)" fill="#D7D7D7"/>
<rect x="165.01" y="16.5566" width="15.6604" height="148.774" rx="7.83019" transform="rotate(-90 165.01 16.5566)" fill="#D7D7D7"/>
<rect x="63.217" y="79.198" width="15.6604" height="187.925" rx="7.83019" transform="rotate(-90 63.217 79.198)" fill="#D7D7D7"/>
<rect x="0.575562" y="141.84" width="15.6604" height="250.566" rx="7.83019" transform="rotate(-90 0.575562 141.84)" fill="#D7D7D7"/>
<rect x="133.689" y="110.519" width="15.6604" height="180.094" rx="7.83019" transform="rotate(-90 133.689 110.519)" fill="#D7D7D7"/>
<rect x="0.575562" y="47.8772" width="15.6604" height="313.208" rx="7.83019" transform="rotate(-90 0.575562 47.8772)" fill="#D7D7D7"/>
<rect x="165.01" y="16.5566" width="15.6604" height="148.774" rx="7.83019" transform="rotate(-90 165.01 16.5566)" fill="#D7D7D7"/>
<rect x="63.217" y="79.198" width="15.6604" height="187.925" rx="7.83019" transform="rotate(-90 63.217 79.198)" fill="#D7D7D7"/>
<rect x="0.575562" y="141.84" width="15.6604" height="250.566" rx="7.83019" transform="rotate(-90 0.575562 141.84)" fill="#D7D7D7"/>
<rect x="133.689" y="110.519" width="15.6604" height="180.094" rx="7.83019" transform="rotate(-90 133.689 110.519)" fill="#D7D7D7"/>
<rect x="63.217" y="173.16" width="15.6604" height="164.434" rx="7.83019" transform="rotate(-90 63.217 173.16)" fill="#D7D7D7"/>
<rect x="0.575562" y="235.802" width="15.6604" height="250.566" rx="7.83019" transform="rotate(-90 0.575562 235.802)" fill="#D7D7D7"/>
<rect x="133.689" y="204.481" width="15.6604" height="180.094" rx="7.83019" transform="rotate(-90 133.689 204.481)" fill="#D7D7D7"/>
</svg>
