<svg width="412" height="334" viewBox="0 0 412 334" fill="none" xmlns="http://www.w3.org/2000/svg">
<mask id="mask0_6_63" style="mask-type:alpha" maskUnits="userSpaceOnUse" x="98" y="0" width="315" height="314">
<path d="M412 157.198C412 243.688 341.886 313.802 255.396 313.802C168.907 313.802 98.7926 243.688 98.7926 157.198C98.7926 70.7083 168.907 0.59436 255.396 0.59436C341.886 0.59436 412 70.7083 412 157.198ZM217.823 157.198C217.823 177.949 234.645 194.772 255.396 194.772C276.148 194.772 292.97 177.949 292.97 157.198C292.97 136.447 276.148 119.625 255.396 119.625C234.645 119.625 217.823 136.447 217.823 157.198Z" fill="#FCBF49"/>
</mask>
<g mask="url(#mask0_6_63)">
<path d="M255.396 0.59436L278.17 102.219L366.132 46.4625L310.376 134.425L412 157.198L310.376 179.971L366.132 267.934L278.17 212.178L255.396 313.802L232.623 212.178L144.661 267.934L200.417 179.971L98.7926 157.198L200.417 134.425L144.661 46.4625L232.623 102.219L255.396 0.59436Z" fill="#FCBF49"/>
</g>
<circle cx="59.6416" cy="274.651" r="58.7264" fill="#D7D7D7"/>
<circle cx="137.943" cy="274.651" r="58.7264" fill="#D7D7D7"/>
<circle cx="216.245" cy="274.651" r="58.7264" fill="#D7D7D7"/>
<circle cx="294.547" cy="286.396" r="46.9811" fill="#D7D7D7"/>
<circle cx="106.623" cy="204.179" r="58.7264" fill="#D7D7D7"/>
<circle cx="196.67" cy="204.179" r="58.7264" fill="#D7D7D7"/>
<circle cx="255.396" cy="227.67" r="58.7264" fill="#D7D7D7"/>
<rect x="55.7264" y="290.311" width="238.821" height="43.066" fill="#D7D7D7"/>
</svg>
