<svg width="412" height="405" viewBox="0 0 412 405" fill="none" xmlns="http://www.w3.org/2000/svg">
<mask id="mask0_6_147" style="mask-type:alpha" maskUnits="userSpaceOnUse" x="97" y="0" width="315" height="314">
<path d="M411.085 156.755C411.085 243.245 340.971 313.358 254.481 313.358C167.991 313.358 97.8774 243.245 97.8774 156.755C97.8774 70.2648 167.991 0.150879 254.481 0.150879C340.971 0.150879 411.085 70.2648 411.085 156.755ZM216.908 156.755C216.908 177.506 233.73 194.328 254.481 194.328C275.232 194.328 292.055 177.506 292.055 156.755C292.055 136.003 275.232 119.181 254.481 119.181C233.73 119.181 216.908 136.003 216.908 156.755Z" fill="#FCBF49"/>
</mask>
<g mask="url(#mask0_6_147)">
<path d="M254.481 0.150879L277.254 101.775L365.217 46.0191L309.461 133.981L411.085 156.755L309.461 179.528L365.217 267.49L277.254 211.734L254.481 313.358L231.708 211.734L143.746 267.49L199.502 179.528L97.8774 156.755L199.502 133.981L143.746 46.0191L231.708 101.775L254.481 0.150879Z" fill="#FCBF49"/>
</g>
<circle cx="58.7264" cy="274.207" r="58.7264" fill="#D7D7D7"/>
<circle cx="137.028" cy="274.207" r="58.7264" fill="#D7D7D7"/>
<circle cx="215.33" cy="274.207" r="58.7264" fill="#D7D7D7"/>
<circle cx="293.632" cy="285.953" r="46.9811" fill="#D7D7D7"/>
<circle cx="105.707" cy="203.736" r="58.7264" fill="#D7D7D7"/>
<circle cx="195.755" cy="203.736" r="58.7264" fill="#D7D7D7"/>
<circle cx="254.481" cy="227.226" r="58.7264" fill="#D7D7D7"/>
<rect x="54.8113" y="289.868" width="238.821" height="43.066" fill="#D7D7D7"/>
<ellipse cx="34.7397" cy="380.754" rx="17.6179" ry="18.6857" transform="rotate(-159.761 34.7397 380.754)" fill="#006092"/>
<path d="M47.2367 346.859L51.8562 378.435L23.2251 367.879L47.2367 346.859Z" fill="#006092"/>
<ellipse cx="113.041" cy="380.754" rx="17.6179" ry="18.6857" transform="rotate(-159.761 113.041 380.754)" fill="#006092"/>
<path d="M125.538 346.859L130.158 378.435L101.527 367.878L125.538 346.859Z" fill="#006092"/>
<ellipse cx="191.343" cy="380.754" rx="17.6179" ry="18.6857" transform="rotate(-159.761 191.343 380.754)" fill="#006092"/>
<path d="M203.84 346.859L208.46 378.435L179.829 367.879L203.84 346.859Z" fill="#006092"/>
<ellipse cx="269.645" cy="380.754" rx="17.6179" ry="18.6857" transform="rotate(-159.761 269.645 380.754)" fill="#006092"/>
<path d="M282.142 346.859L286.762 378.435L258.131 367.879L282.142 346.859Z" fill="#006092"/>
</svg>
