<svg width="377" height="296" viewBox="0 0 377 296" fill="none" xmlns="http://www.w3.org/2000/svg">
<circle cx="94.5377" cy="129.717" r="58.7264" fill="#A0A0A0"/>
<circle cx="172.84" cy="129.717" r="58.7264" fill="#A0A0A0"/>
<circle cx="251.141" cy="129.717" r="58.7264" fill="#A0A0A0"/>
<circle cx="329.443" cy="141.462" r="46.9811" fill="#A0A0A0"/>
<circle cx="141.519" cy="59.2452" r="58.7264" fill="#A0A0A0"/>
<circle cx="231.566" cy="59.2452" r="58.7264" fill="#A0A0A0"/>
<circle cx="290.292" cy="82.7359" r="58.7264" fill="#A0A0A0"/>
<rect x="90.6226" y="145.377" width="238.821" height="43.066" fill="#A0A0A0"/>
<circle cx="59.302" cy="164.953" r="58.7264" fill="#D7D7D7"/>
<circle cx="137.604" cy="164.953" r="58.7264" fill="#D7D7D7"/>
<circle cx="215.906" cy="164.953" r="58.7264" fill="#D7D7D7"/>
<circle cx="294.208" cy="176.698" r="46.9811" fill="#D7D7D7"/>
<circle cx="106.283" cy="94.4811" r="58.7264" fill="#D7D7D7"/>
<circle cx="196.33" cy="94.4811" r="58.7264" fill="#D7D7D7"/>
<circle cx="255.057" cy="117.972" r="58.7264" fill="#D7D7D7"/>
<rect x="55.3868" y="180.613" width="238.821" height="43.066" fill="#D7D7D7"/>
<ellipse cx="43.1454" cy="271.499" rx="17.6179" ry="18.6857" transform="rotate(-159.761 43.1454 271.499)" fill="#006092"/>
<path d="M55.6427 237.604L60.2622 269.18L31.6311 258.624L55.6427 237.604Z" fill="#006092"/>
<ellipse cx="121.447" cy="271.499" rx="17.6179" ry="18.6857" transform="rotate(-159.761 121.447 271.499)" fill="#006092"/>
<path d="M133.944 237.604L138.564 269.18L109.933 258.624L133.944 237.604Z" fill="#006092"/>
<ellipse cx="199.749" cy="271.499" rx="17.6179" ry="18.6857" transform="rotate(-159.761 199.749 271.499)" fill="#006092"/>
<path d="M212.246 237.604L216.866 269.18L188.235 258.624L212.246 237.604Z" fill="#006092"/>
<ellipse cx="278.051" cy="271.499" rx="17.6179" ry="18.6857" transform="rotate(-159.761 278.051 271.499)" fill="#006092"/>
<path d="M290.548 237.604L295.168 269.18L266.537 258.624L290.548 237.604Z" fill="#006092"/>
</svg>
