<svg width="314" height="314" viewBox="0 0 314 314" fill="none" xmlns="http://www.w3.org/2000/svg">
<mask id="mask0_6_68" style="mask-type:alpha" maskUnits="userSpaceOnUse" x="0" y="0" width="314" height="314">
<path d="M313.849 156.604C313.849 243.094 243.735 313.208 157.245 313.208C70.7554 313.208 0.641479 243.094 0.641479 156.604C0.641479 70.1139 70.7554 0 157.245 0C243.735 0 313.849 70.1139 313.849 156.604ZM119.672 156.604C119.672 177.355 136.494 194.177 157.245 194.177C177.997 194.177 194.819 177.355 194.819 156.604C194.819 135.853 177.997 119.03 157.245 119.03C136.494 119.03 119.672 135.853 119.672 156.604Z" fill="#FCBF49"/>
</mask>
<g mask="url(#mask0_6_68)">
<path d="M157.245 0L180.019 101.624L267.981 45.8682L212.225 133.831L313.849 156.604L212.225 179.377L267.981 267.339L180.019 211.583L157.245 313.208L134.472 211.583L46.5097 267.339L102.266 179.377L0.641479 156.604L102.266 133.831L46.5097 45.8682L134.472 101.624L157.245 0Z" fill="#FCBF49"/>
</g>
</svg>
